<svg width="485.213" height="485.213" xmlns="http://www.w3.org/2000/svg">

 <g>
  <title>background</title>
  <rect fill="none" id="canvas_background" height="402" width="582" y="-1" x="-1"/>
 </g>
 <g>
  <title>Layer 1</title>
  <g fill="white" id="svg_1">
   <g id="svg_2">
    <path fill="#3f007f" id="svg_3" d="m363.909,181.955c0,-100.482 -81.469,-181.955 -181.953,-181.955c-100.482,0 -181.955,81.473 -181.955,181.955s81.473,181.951 181.955,181.951c100.484,0 181.953,-81.469 181.953,-181.951zm-181.953,136.461c-75.252,0 -136.465,-61.208 -136.465,-136.46c0,-75.252 61.213,-136.465 136.465,-136.465c75.25,0 136.468,61.213 136.468,136.465c0,75.252 -61.218,136.46 -136.468,136.46z"/>
    <path fill="#3f007f" id="svg_4" d="m471.882,407.567l-111.315,-111.324c-16.586,25.795 -38.536,47.734 -64.331,64.321l111.324,111.324c17.772,17.768 46.587,17.768 64.321,0c17.773,-17.739 17.773,-46.554 0.001,-64.321z"/>
   </g>
  </g>
  <g id="svg_5"/>
  <g id="svg_6"/>
  <g id="svg_7"/>
  <g id="svg_8"/>
  <g id="svg_9"/>
  <g id="svg_10"/>
  <g id="svg_11"/>
  <g id="svg_12"/>
  <g id="svg_13"/>
  <g id="svg_14"/>
  <g id="svg_15"/>
  <g id="svg_16"/>
  <g id="svg_17"/>
  <g id="svg_18"/>
  <g id="svg_19"/>
 </g>
</svg>