<svg width="512" height="512" xmlns="http://www.w3.org/2000/svg">

 <g>
  <title>background</title>
  <rect fill="none" id="canvas_background" height="402" width="582" y="-1" x="-1"/>
 </g>
 <g>
  <title>Layer 1</title>
  <g fill="white" id="svg_1">
   <g id="svg_2">
    <path fill="#3f007f" id="svg_3" d="m487.464,232.092c-4.15,-5.321 -11.825,-6.267 -17.147,-2.12c-5.32,4.15 -6.269,11.826 -2.12,17.147c4.078,5.23 4.078,12.533 0,17.763c-29.884,38.315 -68.55,67.106 -112.08,84.513c22.879,-24.497 36.888,-57.346 36.888,-93.395c0,-35.907 -13.892,-68.638 -36.576,-93.083c25.153,10.114 48.798,24.014 69.966,41.37c2.627,2.153 5.246,4.386 7.79,6.638c5.052,4.473 12.772,4.003 17.245,-1.048c4.473,-5.051 4.003,-12.773 -1.048,-17.245c-2.773,-2.457 -5.632,-4.892 -8.496,-7.239c-52.22,-42.815 -118.237,-66.394 -185.886,-66.394c-91.043,0 -175.408,41.221 -231.463,113.094c-10.979,14.077 -10.979,33.74 0,47.818c56.055,71.873 140.42,113.094 231.463,113.094c91.041,0 175.407,-41.221 231.464,-113.094c10.979,-14.08 10.979,-33.742 0,-47.819zm-443.66,32.79c-4.078,-5.23 -4.078,-12.533 0,-17.763c29.877,-38.308 68.535,-67.095 112.057,-84.504c-22.855,24.485 -36.866,57.321 -36.866,93.385c0,36.051 14.01,68.9 36.865,93.386c-43.521,-17.409 -82.18,-46.196 -112.056,-84.504zm212.345,103.685c-0.049,0 -0.098,0.001 -0.148,0.001c-0.05,0 -0.098,-0.001 -0.148,-0.001c-62.007,-0.08 -112.424,-50.542 -112.424,-112.567s50.416,-112.487 112.424,-112.567c0.049,0 0.098,-0.001 0.148,-0.001c0.038,0 0.076,0.001 0.114,0.001c62.022,0.061 112.457,50.53 112.457,112.567c0,62.025 -50.416,112.487 -112.423,112.567z"/>
   </g>
  </g>
  <g fill="white" id="svg_4">
   <g id="svg_5">
    <path fill="#3f007f" id="svg_6" d="m256.001,204.16c-28.587,0 -51.84,23.253 -51.84,51.84s23.253,51.84 51.84,51.84s51.84,-23.253 51.84,-51.84s-23.253,-51.84 -51.84,-51.84zm0,79.246c-15.108,0 -27.406,-12.298 -27.406,-27.406s12.298,-27.406 27.406,-27.406s27.406,12.298 27.406,27.406s-12.298,27.406 -27.406,27.406z"/>
   </g>
  </g>
  <g fill="white" id="svg_7">
   <g id="svg_8">
    <path fill="#3f007f" id="svg_9" d="m256.001,0c-6.748,0 -12.217,5.469 -12.217,12.217l0,45.813c0,6.748 5.469,12.217 12.217,12.217s12.217,-5.469 12.217,-12.217l0,-45.813c0,-6.748 -5.47,-12.217 -12.217,-12.217z"/>
   </g>
  </g>
  <g fill="white" id="svg_10">
   <g id="svg_11">
    <path fill="#3f007f" id="svg_12" d="m256.001,441.753c-6.748,0 -12.217,5.469 -12.217,12.217l0,45.813c0,6.748 5.469,12.217 12.217,12.217s12.217,-5.469 12.217,-12.217l0,-45.813c0,-6.748 -5.471,-12.217 -12.217,-12.217z"/>
   </g>
  </g>
  <g fill="white" id="svg_13">
   <g id="svg_14">
    <path fill="#3f007f" id="svg_15" d="m437.021,74.98c-4.771,-4.77 -12.505,-4.77 -17.279,0l-22.795,22.795c-4.771,4.771 -4.771,12.506 0,17.279c2.386,2.385 5.511,3.578 8.639,3.578c3.126,0 6.252,-1.193 8.639,-3.578l22.797,-22.795c4.77,-4.771 4.77,-12.506 -0.001,-17.279z"/>
   </g>
  </g>
  <g fill="white" id="svg_16">
   <g id="svg_17">
    <path fill="#3f007f" id="svg_18" d="m115.055,396.946c-4.77,-4.769 -12.505,-4.77 -17.277,0l-22.797,22.795c-4.771,4.771 -4.771,12.506 0,17.279c2.386,2.385 5.513,3.578 8.639,3.578s6.252,-1.193 8.639,-3.578l22.797,-22.795c4.77,-4.772 4.77,-12.506 -0.001,-17.279z"/>
   </g>
  </g>
  <g fill="white" id="svg_19">
   <g id="svg_20">
    <path fill="#3f007f" id="svg_21" d="m115.055,97.776l-22.797,-22.796c-4.771,-4.77 -12.506,-4.77 -17.277,0c-4.771,4.773 -4.77,12.507 0,17.279l22.797,22.795c2.385,2.385 5.513,3.578 8.639,3.578s6.254,-1.193 8.639,-3.578c4.77,-4.773 4.769,-12.507 -0.001,-17.278z"/>
   </g>
  </g>
  <g fill="white" id="svg_22">
   <g id="svg_23">
    <path fill="#3f007f" id="svg_24" d="m437.019,419.741l-22.795,-22.795c-4.773,-4.77 -12.506,-4.77 -17.279,0c-4.771,4.773 -4.771,12.507 0,17.279l22.797,22.795c2.386,2.385 5.513,3.578 8.639,3.578c3.126,0 6.252,-1.193 8.639,-3.578c4.771,-4.773 4.771,-12.508 -0.001,-17.279z"/>
   </g>
  </g>
  <g id="svg_25"/>
  <g id="svg_26"/>
  <g id="svg_27"/>
  <g id="svg_28"/>
  <g id="svg_29"/>
  <g id="svg_30"/>
  <g id="svg_31"/>
  <g id="svg_32"/>
  <g id="svg_33"/>
  <g id="svg_34"/>
  <g id="svg_35"/>
  <g id="svg_36"/>
  <g id="svg_37"/>
  <g id="svg_38"/>
  <g id="svg_39"/>
 </g>
</svg>